# xmcd CD database file
#
# Track frame offsets:
#	150
#	49312
#	67832
#	84813
#	102528
#	127564
#	135340
#	149704
#	166410
#	204035
#	210280
#	226525
#	238202
#	243804
#	253881
#	266117
#	290178
#	320505
#	340557
#
# Disc length: 4662 seconds
#
# Revision: 2
# Processed by: cddbd v1.5.2PL0 Copyright (c) Steve Scherf et al.
# Submitted via: CDex 1.50
#
DISCID=09123413
DTITLE=JOLIET, André - Complete chamber Music with Piano_Filippo Farinelli (piano)_CD2
DYEAR=2017
DGENRE=contemporary
TTITLE0=Chant de Linos for Flute and Piano (Claudia Giottoli, flute)
TTITLE1=I - Cantilène, Sérénade for Oboe and Piano (Nora Cismondi, oboe)
TTITLE2=II - Caprice, Sérénade for Oboe and Piano  (Nora Cismondi, oboe)
TTITLE3=III - Intermède, Sérénade for Oboe and Piano  (Nora Cismondi, oboe)
TTITLE4=IV - Marche burlesque, Sérénade for Oboe and Piano  (Nora Cismondi, oboe)
TTITLE5=I - Ouverture, Petite Suite for string quintet, piano and percussion (Henao String Quartet - Laura Mancini, percussion)
TTITLE6=II - Introduction et Valse, Petite Suite for string quintet, piano and percussion (Henao String Quartet - Laura Mancini, percussion)
TTITLE7=III - Contredance, Petite Suite for string quintet, piano and percussion (Henao String Quartet - Laura Mancini, percussion)
TTITLE8=Hopi Snake Dance for 2 Pianos (Monica Cattarossi, piano)
TTITLE9=Air de bravoure for Trumpet and Piano (Vincenzo Pierotti, trumpet)
TTITLE10=Fantaisie-Impromptu for Alto Sax and Piano (David Brutti, saxophone)
TTITLE11=Fantaisie-Caprice for Flute and Piano (Claudia Giottoli, flute)
TTITLE12=Cabrioles for Flute and Piano (Claudia Giottoli, flute)
TTITLE13=Chant pour les piroguiers de l'Orénoque for Oboe and Piano (Nora Cismondi, oboe)
TTITLE14=Meditation for Clarinet and Piano (Simone Simonelli, clarinet)
TTITLE15=I - Fluide, Sonate for Flute and Piano (Claudia Giottoli, flute)
TTITLE16=II - Grave, Sonate for Flute and Piano (Claudia Giottoli, flute)
TTITLE17=III - Violent, Sonate for Flute and Piano (Claudia Giottoli, flute)
TTITLE18=Patchinko for 2 Pianos (Monica Cattarossi, piano)
EXTD=YEAR: 2017
EXTT0=
EXTT1=
EXTT2=
EXTT3=
EXTT4=
EXTT5=
EXTT6=
EXTT7=
EXTT8=
EXTT9=
EXTT10=
EXTT11=
EXTT12=
EXTT13=
EXTT14=
EXTT15=
EXTT16=
EXTT17=
EXTT18=
PLAYORDER=
